M48
; DRILL file {KiCad 6.0.11-2627ca5db0~126~ubuntu22.04.1} date  8.02.2023 (ср) 11:42:56
; FORMAT={-:-/ absolute / inch / decimal}
; #@! TF.CreationDate,2023-02-08T11:42:56+02:00
; #@! TF.GenerationSoftware,Kicad,Pcbnew,6.0.11-2627ca5db0~126~ubuntu22.04.1
; #@! TF.FileFunction,Plated,1,2,PTH
FMAT,2
INCH
; #@! TA.AperFunction,Plated,PTH,ComponentDrill
T1C0.0315
; #@! TA.AperFunction,Plated,PTH,ComponentDrill
T2C0.0374
; #@! TA.AperFunction,Plated,PTH,ComponentDrill
T3C0.0394
%
G90
G05
T1
X3.45Y-2.378
X3.5484Y-2.378
X3.7Y-1.725
X4.1Y-1.725
X4.3016Y-1.7
X4.4Y-1.7
T2
X3.2987Y-1.9791
X3.2987Y-2.0776
X3.2987Y-2.176
X3.2987Y-2.2744
X3.2987Y-2.3729
X3.3793Y-1.5716
X3.3793Y-1.67
X3.3793Y-1.7684
T3
X3.548Y-1.6527
X3.548Y-2.2433
X3.7Y-1.55
X3.7Y-2.45
X3.8Y-1.55
X3.8Y-2.45
X3.9Y-1.55
X3.9Y-2.45
X3.924Y-1.976
X3.924Y-2.076
X3.924Y-2.176
X4.0Y-1.55
X4.0Y-2.45
X4.1Y-1.55
X4.1Y-1.85
X4.1Y-2.25
X4.1Y-2.45
X4.2Y-1.55
X4.2Y-1.85
X4.2Y-2.25
X4.2Y-2.45
X4.3Y-1.55
X4.3Y-1.85
X4.3Y-2.25
X4.3Y-2.45
X4.4Y-1.55
X4.4Y-1.85
X4.4Y-2.25
X4.4Y-2.45
X4.5Y-1.85
X4.5Y-2.25
X4.6Y-1.85
X4.6Y-2.25
T0
M30
