G04 #@! TF.GenerationSoftware,KiCad,Pcbnew,6.0.11-2627ca5db0~126~ubuntu22.04.1*
G04 #@! TF.CreationDate,2023-02-08T11:56:42+02:00*
G04 #@! TF.ProjectId,MHI-AC-CTRL,4d48492d-4143-42d4-9354-524c2e6b6963,v2.3*
G04 #@! TF.SameCoordinates,Original*
G04 #@! TF.FileFunction,Legend,Bot*
G04 #@! TF.FilePolarity,Positive*
%FSLAX46Y46*%
G04 Gerber Fmt 4.6, Leading zero omitted, Abs format (unit mm)*
G04 Created by KiCad (PCBNEW 6.0.11-2627ca5db0~126~ubuntu22.04.1) date 2023-02-08 11:56:42*
%MOMM*%
%LPD*%
G01*
G04 APERTURE LIST*
%ADD10C,0.150000*%
G04 APERTURE END LIST*
D10*
X80280000Y-47710000D02*
X86240000Y-47710000D01*
X80280000Y-62820000D02*
X80280000Y-47710000D01*
X85490000Y-61020000D02*
X86230000Y-61010000D01*
X86240000Y-62820000D02*
X80280000Y-62820000D01*
X85490000Y-51020000D02*
X85490000Y-59520000D01*
X86240000Y-47710000D02*
X86240000Y-62820000D01*
X85490000Y-51020000D02*
X86240000Y-51020000D01*
X85490000Y-59520000D02*
X86240000Y-59520000D01*
X85490000Y-61020000D02*
X85490000Y-62820000D01*
X85490000Y-49510000D02*
X86240000Y-49510000D01*
X85490000Y-49510000D02*
X85500000Y-47710000D01*
X119093333Y-51252380D02*
X119093333Y-50252380D01*
X118760000Y-50966666D01*
X118426666Y-50252380D01*
X118426666Y-51252380D01*
X117950476Y-51252380D02*
X117950476Y-50252380D01*
X117950476Y-50728571D02*
X117379047Y-50728571D01*
X117379047Y-51252380D02*
X117379047Y-50252380D01*
X116902857Y-51252380D02*
X116902857Y-50252380D01*
X116426666Y-50871428D02*
X115664761Y-50871428D01*
X115236190Y-50966666D02*
X114760000Y-50966666D01*
X115331428Y-51252380D02*
X114998095Y-50252380D01*
X114664761Y-51252380D01*
X113760000Y-51157142D02*
X113807619Y-51204761D01*
X113950476Y-51252380D01*
X114045714Y-51252380D01*
X114188571Y-51204761D01*
X114283809Y-51109523D01*
X114331428Y-51014285D01*
X114379047Y-50823809D01*
X114379047Y-50680952D01*
X114331428Y-50490476D01*
X114283809Y-50395238D01*
X114188571Y-50300000D01*
X114045714Y-50252380D01*
X113950476Y-50252380D01*
X113807619Y-50300000D01*
X113760000Y-50347619D01*
X113331428Y-50871428D02*
X112569523Y-50871428D01*
X111521904Y-51157142D02*
X111569523Y-51204761D01*
X111712380Y-51252380D01*
X111807619Y-51252380D01*
X111950476Y-51204761D01*
X112045714Y-51109523D01*
X112093333Y-51014285D01*
X112140952Y-50823809D01*
X112140952Y-50680952D01*
X112093333Y-50490476D01*
X112045714Y-50395238D01*
X111950476Y-50300000D01*
X111807619Y-50252380D01*
X111712380Y-50252380D01*
X111569523Y-50300000D01*
X111521904Y-50347619D01*
X111236190Y-50585714D02*
X110855238Y-50585714D01*
X111093333Y-50252380D02*
X111093333Y-51109523D01*
X111045714Y-51204761D01*
X110950476Y-51252380D01*
X110855238Y-51252380D01*
X110521904Y-51252380D02*
X110521904Y-50585714D01*
X110521904Y-50776190D02*
X110474285Y-50680952D01*
X110426666Y-50633333D01*
X110331428Y-50585714D01*
X110236190Y-50585714D01*
X109760000Y-51252380D02*
X109855238Y-51204761D01*
X109902857Y-51109523D01*
X109902857Y-50252380D01*
X108617142Y-51252380D02*
X108617142Y-50585714D01*
X108617142Y-50680952D02*
X108569523Y-50633333D01*
X108474285Y-50585714D01*
X108331428Y-50585714D01*
X108236190Y-50633333D01*
X108188571Y-50728571D01*
X108188571Y-51252380D01*
X108188571Y-50728571D02*
X108140952Y-50633333D01*
X108045714Y-50585714D01*
X107902857Y-50585714D01*
X107807619Y-50633333D01*
X107760000Y-50728571D01*
X107760000Y-51252380D01*
X107283809Y-51157142D02*
X107236190Y-51204761D01*
X107283809Y-51252380D01*
X107331428Y-51204761D01*
X107283809Y-51157142D01*
X107283809Y-51252380D01*
X106902857Y-50252380D02*
X106236190Y-50252380D01*
X106902857Y-51252380D01*
X106236190Y-51252380D01*
X105902857Y-51204761D02*
X105760000Y-51252380D01*
X105521904Y-51252380D01*
X105426666Y-51204761D01*
X105379047Y-51157142D01*
X105331428Y-51061904D01*
X105331428Y-50966666D01*
X105379047Y-50871428D01*
X105426666Y-50823809D01*
X105521904Y-50776190D01*
X105712380Y-50728571D01*
X105807619Y-50680952D01*
X105855238Y-50633333D01*
X105902857Y-50538095D01*
X105902857Y-50442857D01*
X105855238Y-50347619D01*
X105807619Y-50300000D01*
X105712380Y-50252380D01*
X105474285Y-50252380D01*
X105331428Y-50300000D01*
X104998095Y-50252380D02*
X104331428Y-51252380D01*
X104331428Y-50252380D02*
X104998095Y-51252380D01*
X112418571Y-53268571D02*
X112751904Y-53268571D01*
X112751904Y-53792380D02*
X112751904Y-52792380D01*
X112275714Y-52792380D01*
X111513809Y-53744761D02*
X111609047Y-53792380D01*
X111799523Y-53792380D01*
X111894761Y-53744761D01*
X111942380Y-53649523D01*
X111942380Y-53268571D01*
X111894761Y-53173333D01*
X111799523Y-53125714D01*
X111609047Y-53125714D01*
X111513809Y-53173333D01*
X111466190Y-53268571D01*
X111466190Y-53363809D01*
X111942380Y-53459047D01*
X111037619Y-53792380D02*
X111037619Y-52792380D01*
X111037619Y-53173333D02*
X110942380Y-53125714D01*
X110751904Y-53125714D01*
X110656666Y-53173333D01*
X110609047Y-53220952D01*
X110561428Y-53316190D01*
X110561428Y-53601904D01*
X110609047Y-53697142D01*
X110656666Y-53744761D01*
X110751904Y-53792380D01*
X110942380Y-53792380D01*
X111037619Y-53744761D01*
X110085238Y-52792380D02*
X110180476Y-52982857D01*
X109704285Y-52887619D02*
X109656666Y-52840000D01*
X109561428Y-52792380D01*
X109323333Y-52792380D01*
X109228095Y-52840000D01*
X109180476Y-52887619D01*
X109132857Y-52982857D01*
X109132857Y-53078095D01*
X109180476Y-53220952D01*
X109751904Y-53792380D01*
X109132857Y-53792380D01*
X108799523Y-52792380D02*
X108180476Y-52792380D01*
X108513809Y-53173333D01*
X108370952Y-53173333D01*
X108275714Y-53220952D01*
X108228095Y-53268571D01*
X108180476Y-53363809D01*
X108180476Y-53601904D01*
X108228095Y-53697142D01*
X108275714Y-53744761D01*
X108370952Y-53792380D01*
X108656666Y-53792380D01*
X108751904Y-53744761D01*
X108799523Y-53697142D01*
M02*
